<?xml version="1.0" encoding="UTF-8"?>
<svg version="1.1" xmlns="http://www.w3.org/2000/svg" width="500" height="500">
<path d="M0 0 C1.27649918 -0.0071553 2.55299835 -0.01431061 3.86817932 -0.02168274 C5.26557898 -0.02452245 6.6629789 -0.02723424 8.06037903 -0.02983093 C9.54618485 -0.0361044 11.03198913 -0.04275197 12.51779175 -0.04974365 C17.38329495 -0.0706981 22.24879811 -0.0811445 27.11433411 -0.09111023 C28.79881112 -0.09516233 30.48328797 -0.09927938 32.16776466 -0.10346031 C40.09245665 -0.12250057 48.01713945 -0.13672871 55.94184989 -0.14507228 C65.03878162 -0.15481188 74.13546791 -0.18105008 83.23231333 -0.22157317 C90.29428167 -0.25193263 97.35618049 -0.26656013 104.41821271 -0.26985329 C108.62076928 -0.27218311 112.82306339 -0.28086775 117.02554893 -0.30631447 C152.23506534 -0.50835996 182.41197868 3.83750993 209.44636536 28.14717102 C210.21335754 28.83166321 210.98034973 29.5161554 211.77058411 30.22138977 C226.9139824 44.51908345 236.25027667 63.20428813 241.44636536 83.14717102 C241.81568176 84.5470929 241.81568176 84.5470929 242.19245911 85.97529602 C247.87088411 112.76179739 241.86200379 142.12266185 227.44636536 165.14717102 C217.16803851 180.68170228 204.06334603 192.20909241 188.44636536 202.14717102 C188.83308411 202.72982727 189.21980286 203.31248352 189.61824036 203.91279602 C199.17772705 218.96188894 201.24818323 235.23652623 198.98542786 252.70576477 C195.29301345 269.0609886 184.92457386 283.77928681 170.81745911 292.83467102 C161.41356178 298.18539496 151.55595038 302.27006853 140.63299561 302.27415466 C139.47074966 302.27697449 138.30850372 302.27979431 137.11103821 302.28269958 C135.84489685 302.28067535 134.57875549 302.27865112 133.27424622 302.27656555 C131.92040968 302.27792134 130.56657351 302.27970227 129.21273804 302.28187561 C125.54345186 302.28642838 121.87419384 302.28466936 118.20490718 302.28149652 C114.36307497 302.27896232 110.52124515 302.28131338 106.67941284 302.28288269 C100.22924873 302.28470106 93.77909608 302.28230655 87.32893372 302.27754211 C79.8722749 302.27209783 72.41564342 302.2738647 64.95898527 302.27936852 C58.55462629 302.28390635 52.15027554 302.28454698 45.74591547 302.28192985 C41.9217713 302.28037107 38.09763998 302.28016246 34.27349663 302.28346634 C30.67922752 302.28635484 27.08499368 302.2843513 23.49072838 302.27857208 C21.54254073 302.27661913 19.59435009 302.27958991 17.64616394 302.28269958 C16.48673782 302.27987976 15.32731171 302.27705994 14.13275146 302.27415466 C13.12527328 302.27377764 12.11779509 302.27340061 11.07978725 302.27301216 C8.70995492 302.15976696 6.71112134 301.82478456 4.44636536 301.14717102 C2.76824909 295.04901639 2.20727006 289.06732992 2.13386536 282.77217102 C2.11646301 282.10193909 2.09906067 281.43170715 2.08113098 280.74116516 C2.0854087 276.24046611 2.84222457 272.22374554 3.96907043 267.86347961 C4.24422989 266.79068756 4.51938934 265.71789551 4.80288696 264.6125946 C5.01523483 263.79900482 5.2275827 262.98541504 5.44636536 262.14717102 C6.13989861 262.1499364 6.83343185 262.15270178 7.54798126 262.15555096 C24.4414554 262.2218717 41.33488817 262.27148119 58.22846222 262.30260754 C66.39814944 262.318061 74.56774963 262.33912135 82.73738098 262.37348938 C89.85997976 262.40343841 96.9825155 262.42275708 104.1051755 262.4294365 C107.87482288 262.43333947 111.64428994 262.44248003 115.41387939 262.46436119 C118.9662889 262.48481347 122.5184448 262.49098731 126.07090759 262.48649406 C127.98739364 262.48770523 129.90385245 262.50380148 131.82026672 262.52043152 C139.31401704 262.49368212 145.34436735 262.01493954 151.65339661 257.60420227 C157.25450453 251.86681435 159.50552046 246.79780896 159.94636536 238.77217102 C159.70559442 231.82833734 157.562587 226.0584574 152.42683411 221.26045227 C144.79470188 215.7401885 136.48738049 214.8416654 127.27742004 214.88838196 C126.40941269 214.88487732 125.54140533 214.88137268 124.64709473 214.87776184 C121.80405962 214.86902695 118.9612776 214.87476647 116.11824036 214.88154602 C114.12200371 214.88019652 112.12576739 214.87825361 110.12953186 214.87574768 C105.95369831 214.87280714 101.7779506 214.87705775 97.60212708 214.88642883 C92.28219597 214.89779296 86.96246739 214.89127631 81.64254379 214.87928391 C77.52097587 214.87201096 73.39945488 214.87437853 69.27788544 214.87953949 C67.31812261 214.88086255 65.35835536 214.87927605 63.39859772 214.87458038 C38.83613059 214.82865367 18.37029378 218.28381729 -0.27238464 235.77607727 C-13.20719986 249.22031158 -19.11459298 266.93707222 -18.97331238 285.3441925 C-18.35296787 304.22380908 -10.03589335 320.31512053 3.44636536 333.14717102 C18.0634514 346.51493347 36.27713677 350.78495194 55.59480286 350.66474915 C57.02931929 350.67019035 58.46383011 350.67732403 59.89833069 350.68598938 C63.74145367 350.70398902 67.58413985 350.69725377 71.42726898 350.68447304 C75.48231026 350.67422233 79.53731843 350.68377172 83.59236145 350.6900177 C90.39727879 350.69725946 97.20202151 350.68779836 104.00691223 350.6686554 C111.83235104 350.6468933 119.65737272 350.65394716 127.48280144 350.67596102 C134.24683596 350.69421479 141.0107462 350.696625 147.77479744 350.68620634 C151.794845 350.68002579 155.81469765 350.67898325 159.83473206 350.69235229 C163.6173239 350.704057 167.39938714 350.69562433 171.18192291 350.67277527 C173.20164295 350.66511436 175.22140866 350.67671787 177.24110413 350.68928528 C195.29421464 350.52562042 211.75990655 345.16454948 225.44636536 333.14717102 C226.12312317 332.56451477 226.79988098 331.98185852 227.49714661 331.38154602 C238.89892543 320.84320288 246.82057374 304.62442246 247.54647255 288.99123001 C247.59745347 286.38480417 247.61579549 283.77996645 247.62336731 281.17304993 C247.62993851 280.18350311 247.6365097 279.1939563 247.64328003 278.17442322 C247.66294718 274.90752575 247.67466441 271.64067425 247.68464661 268.37373352 C247.68872213 267.25181988 247.69279766 266.12990623 247.69699669 264.97399521 C247.71783492 259.02928097 247.73214328 253.08458962 247.74153137 247.1398468 C247.75255783 241.03644812 247.78692098 234.93341781 247.82670307 228.8301487 C247.8530094 224.106261 247.86123586 219.38245897 247.86481285 214.65850449 C247.86964696 212.41092329 247.88116875 210.16334509 247.89985085 207.91583633 C248.02658525 191.65132381 247.26040146 177.18701442 239.30183411 162.57685852 C237.52989023 157.54421426 239.76254289 153.0696781 241.75886536 148.39717102 C243.90722532 142.96711337 245.43818679 137.59775606 246.69636536 131.89717102 C246.85919006 131.16530579 247.02201477 130.43344055 247.18977356 129.67939758 C248.28100523 124.52169082 248.92800497 119.39297816 249.44636536 114.14717102 C258.66431867 118.48731599 265.1279812 127.72849658 270.44636536 136.14717102 C271.03159973 137.04951477 271.61683411 137.95185852 272.21980286 138.88154602 C282.87700784 156.10061084 287.58391173 175.56194129 287.60749817 195.69966125 C287.61246307 196.72690811 287.61742798 197.75415497 287.62254333 198.81253052 C287.63708421 202.19361557 287.64395506 205.57465365 287.64949036 208.95576477 C287.65231773 210.11872637 287.65514511 211.28168797 287.65805817 212.47989082 C287.67302161 218.63973846 287.68226782 224.79956287 287.68659973 230.95942688 C287.69206628 237.28007319 287.71606426 243.60050213 287.74457169 249.92108059 C287.7633251 254.81742952 287.76841048 259.71372754 287.76993561 264.61010933 C287.77293633 266.93779241 287.78087597 269.26547515 287.79412079 271.59312248 C287.96504941 303.95342639 280.93137577 331.34438538 259.44636536 356.14717102 C258.80312317 356.89224915 258.15988098 357.63732727 257.49714661 358.40498352 C239.18341489 378.02967651 212.85142047 388.49586926 186.44636536 390.14717102 C176.10203427 390.50339748 165.74628234 390.45564558 155.39699936 390.4487536 C152.17178488 390.44767139 148.94658957 390.45259843 145.72137928 390.45735902 C138.10267466 390.46838775 130.48401937 390.46892858 122.86531067 390.46284485 C115.05528005 390.45680353 107.24542951 390.46913543 99.43542957 390.49041492 C92.68072536 390.50812937 85.92607797 390.51401709 79.17135143 390.51077718 C75.15857207 390.50898061 71.14592135 390.51143558 67.13316345 390.52549171 C30.04080949 390.6442674 -1.05857798 384.66121159 -28.74113464 358.39717102 C-42.64350148 343.93149921 -51.52301398 326.45497825 -56.55363464 307.14717102 C-56.79984558 306.21388977 -57.04605652 305.28060852 -57.29972839 304.31904602 C-62.97815339 277.53254465 -56.96927308 248.17168019 -42.55363464 225.14717102 C-33.93463723 212.12052897 -22.83513359 200.44202659 -9.55363464 192.14717102 C-8.34320961 191.33779043 -7.13454455 190.52576354 -5.92863464 189.70967102 C-5.14488464 189.19404602 -4.36113464 188.67842102 -3.55363464 188.14717102 C-3.94035339 187.56451477 -4.32707214 186.98185852 -4.72550964 186.38154602 C-14.44600077 171.07899069 -17.41051751 152.54164305 -13.49113464 134.77217102 C-8.26248478 117.66460695 2.03914097 104.33183729 17.44636536 95.14717102 C28.968074 89.36413113 39.43397837 87.84752441 52.18025208 87.9042511 C53.54615367 87.90317622 54.91205482 87.9012345 56.2779541 87.89849854 C59.96143517 87.89368255 63.64479369 87.90126304 67.32825994 87.91145158 C71.19055369 87.92027732 75.0528441 87.91847382 78.91514587 87.91809082 C85.39269547 87.91902488 91.87019798 87.92767744 98.34773254 87.94136047 C105.83744355 87.95712307 113.32710317 87.96235706 120.81682956 87.96162492 C128.7997288 87.96094998 136.78260823 87.96788366 144.7655015 87.97707152 C147.06434485 87.979203 149.36318501 87.9799127 151.66202927 87.98031044 C155.26866604 87.98131377 158.87525959 87.9874096 162.4818821 87.99747658 C164.43856997 88.00179635 166.39526671 88.00122964 168.35195923 88.00053406 C170.09298668 88.00693153 170.09298668 88.00693153 171.8691864 88.01345825 C172.87976545 88.0151341 173.89034451 88.01680994 174.93154716 88.01853657 C177.44636536 88.14717102 177.44636536 88.14717102 180.44636536 89.14717102 C182.12448162 95.24532565 182.68546066 101.22701212 182.75886536 107.52217102 C182.7762677 108.19240295 182.79367004 108.86263489 182.81159973 109.55317688 C182.80732201 114.05387594 182.05050614 118.0705965 180.92366028 122.43086243 C180.64850082 123.50365448 180.37334137 124.57644653 180.08984375 125.68174744 C179.87749588 126.49533722 179.66514801 127.308927 179.44636536 128.14717102 C178.74767838 128.14348385 178.04899139 128.13979668 177.32913208 128.13599777 C160.31050063 128.04757199 143.29192771 127.98142513 126.27311707 127.93992233 C118.04285927 127.91931722 109.81275504 127.89123604 101.58259583 127.84541321 C94.40725887 127.8054824 87.23203316 127.77972329 80.05658817 127.77081704 C76.2589344 127.7656128 72.46159881 127.75342426 68.66404724 127.72425079 C65.08532186 127.69698265 61.50704397 127.68874876 57.92822456 127.6947403 C55.9973999 127.69312522 54.06662333 127.67166221 52.13592529 127.64949036 C43.61798028 127.68973767 38.4046143 128.9086037 31.69636536 134.39717102 C26.5680328 140.66513303 24.67766803 145.91878726 25.00886536 154.11592102 C25.88354901 160.17622919 27.98674215 165.03215351 32.67683411 169.06513977 C37.25249783 172.20764292 41.08195517 174.26545653 46.71258545 174.28761292 C47.5828537 174.29332306 48.45312195 174.2990332 49.34976196 174.30491638 C50.30195114 174.30603424 51.25414032 174.3071521 52.23518372 174.30830383 C53.24047119 174.31326874 54.24575867 174.31823364 55.2815094 174.323349 C58.61641623 174.33798393 61.9512754 174.34477713 65.28620911 174.35029602 C67.60729982 174.3560492 69.92839051 174.36180692 72.2494812 174.36756897 C77.12443768 174.37808468 81.99937765 174.38392269 86.87434387 174.3874054 C93.09810093 174.39287176 99.32163718 174.41685763 105.54532528 174.44537735 C110.34540423 174.46407942 115.14543099 174.46921349 119.94554329 174.47074127 C122.23828391 174.4737545 124.5310239 174.48173773 126.82372856 174.49492645 C150.443503 174.62102733 167.8093859 170.82855729 185.55574036 154.16670227 C198.42076484 140.87783008 204.14863793 123.00981158 203.91731262 104.7973175 C203.23806871 88.09368262 196.24764824 71.09015027 184.44636536 59.14717102 C168.39230317 44.98594586 151.54477754 39.66708496 130.43904114 39.74311829 C128.98364239 39.73739946 127.52824811 39.73042943 126.07286072 39.72232056 C122.15945908 39.70454004 118.24628351 39.70552879 114.33285379 39.71126294 C111.0479954 39.71437711 107.76317905 39.70823775 104.47832668 39.7022242 C96.71975244 39.68822993 88.96128843 39.68969731 81.20271301 39.7011261 C73.23816305 39.71260012 65.27395012 39.6985321 57.30944455 39.67172962 C50.4342464 39.64947191 43.55915326 39.64295785 36.68392169 39.64880604 C32.59398432 39.65215313 28.50426279 39.64991226 24.41435623 39.63255501 C20.56452783 39.6169262 16.71519316 39.62121471 12.86538315 39.63986015 C11.46552363 39.6435026 10.06562618 39.64056716 8.665802 39.62997437 C-10.06914358 39.49920126 -27.75086411 44.81270319 -41.49430847 57.9601593 C-58.11770253 74.52429495 -63.04649271 93.5766404 -63.10942078 116.40596008 C-63.10225955 118.56970067 -63.09405522 120.73343802 -63.08488464 122.89717102 C-63.08758685 125.16768052 -63.09147528 127.43818887 -63.09648132 129.70869446 C-63.10234209 134.44220617 -63.09392449 139.17541373 -63.07511902 143.90888977 C-63.05233201 149.93361127 -63.06547356 155.95761963 -63.08940887 161.98231506 C-63.10395981 166.66333757 -63.09921849 171.34419491 -63.08889771 176.02522278 C-63.08625603 178.24486885 -63.08940845 180.46453062 -63.09881592 182.68415833 C-63.14750151 197.39435121 -62.91045415 211.44620323 -55.74113464 224.70967102 C-54.14069253 227.70244822 -53.5595286 228.9909812 -53.42863464 232.45967102 C-54.42527169 235.72642579 -55.59555889 238.7931271 -56.86613464 241.95967102 C-59.02366379 247.36912816 -60.54993958 252.71159016 -61.80363464 258.39717102 C-61.96645935 259.12911682 -62.12928406 259.86106262 -62.29704285 260.6151886 C-63.38837528 265.77279205 -64.03528263 270.90144865 -64.55363464 276.14717102 C-79.76109545 268.88213244 -90.73243592 248.24303021 -96.34709167 232.99189758 C-102.23504941 215.68075918 -102.86693554 198.99109074 -102.85441589 180.85029602 C-102.85831126 178.48821437 -102.86264763 176.12613342 -102.86740112 173.76405334 C-102.87483235 168.82858504 -102.87459492 163.8931883 -102.86930847 158.9577179 C-102.86352273 152.67643062 -102.88043873 146.39543906 -102.90365314 140.11420059 C-102.91848578 135.23929674 -102.91924921 130.36446252 -102.91614342 125.4895401 C-102.916652 123.17581854 -102.92180134 120.86209259 -102.93195534 118.54839325 C-103.05629546 86.25460882 -95.99149251 58.89552267 -74.55363464 34.14717102 C-73.58877136 33.02955383 -73.58877136 33.02955383 -72.60441589 31.88935852 C-54.53733287 12.5289702 -26.46823288 0.1025285 0 0 Z " fill="#FFFFFF" transform="translate(157.5536346435547,54.85282897949219)"/>
</svg>
